#!OML:ASF F:\VICON\USERDATA\INSTALL\rory3\rory3.ASF
:FULLY-SPECIFIED
:DEGREES
1440
root -2.15008 18.1164 0.243767 -1.78714 -72.3342 -0.113646
lowerback 9.90164 2.3058 -0.408659
upperback 3.3367 2.8962 -1.20986
thorax -2.03539 1.40792 -1.35054
lowerneck -11.6616 1.84172 -3.98893
upperneck 3.00397 2.96408 0.775401
head 2.94845 1.43848 1.13718
rclavicle 5.71506e-014 -1.51076e-014
rhumerus -24.6096 44.1725 -98.4194
rradius 37.1872
rwrist 20.8078
rhand 9.28722 7.47082
rfingers 7.12502
rthumb 34.45 -19.2119
lclavicle 5.71506e-014 -1.51076e-014
lhumerus -28.0245 -51.5015 104.637
lradius 34.4518
lwrist -3.74233
lhand 11.2068 28.6541
lfingers 7.12502
lthumb 36.2701 54.9038
rfemur -16.97 30.7013 5.00658
rtibia 34.3996
rfoot -17.1114 3.62592
rtoes -17.7912
lfemur -20.1184 -8.34483 -9.97917
ltibia 34.0077
lfoot -9.12729 6.64711
ltoes -13.7239
1441
root -2.19874 18.1075 0.153286 -1.84884 -71.9126 -0.364313
lowerback 9.9183 2.27034 -0.246363
upperback 3.43449 2.86411 -1.19119
thorax -1.93674 1.3922 -1.41648
lowerneck -11.5779 1.9013 -3.95523
upperneck 3.15369 3.05546 0.485752
head 2.98553 1.47042 1.04199
rclavicle -4.2192e-014 9.93923e-015
rhumerus -23.1463 44.6156 -97.3182
rradius 36.7539
rwrist 20.1352
rhand 11.3243 7.02823
rfingers 7.12502
rthumb 36.3813 -19.1937
lclavicle -4.2192e-014 9.93923e-015
lhumerus -26.9379 -51.278 103.379
lradius 34.6086
lwrist -2.39261
lhand 12.2744 28.8817
lfingers 7.12502
lthumb 37.2802 54.8732
rfemur -16.0477 31.8849 5.35529
rtibia 33.9064
rfoot -17.8679 4.89524
rtoes -18.0475
lfemur -19.7689 -8.8173 -9.56885
ltibia 33.8906
lfoot -9.21386 6.48899
ltoes -13.043
1442
root -2.22005 18.0833 0.0263886 -1.7765 -70.7521 -0.456925
lowerback 10.187 2.04199 -0.3781
upperback 3.31587 2.54921 -1.12956
thorax -2.2226 1.23466 -1.25713
lowerneck -11.5814 1.91718 -4.04564
upperneck 3.5026 3.10822 0.297859
head 3.10686 1.48229 1.00475
rclavicle 1.35671e-014 6.75868e-015
rhumerus -21.6468 44.8442 -96.079
rradius 36.243
rwrist 19.896
rhand 12.0795 7.18267
rfingers 7.12502
rthumb 37.0959 -18.8569
lclavicle 1.35671e-014 6.75868e-015
lhumerus -25.9599 -51.1518 102.175
lradius 34.9004
lwrist -1.60573
lhand 13.3438 29.8745
lfingers 7.12502
lthumb 38.2905 55.5941
rfemur -15.3542 32.1367 5.76746
rtibia 33.499
rfoot -18.4077 4.47375
rtoes -18.6357
lfemur -20.1022 -9.03395 -9.09126
ltibia 33.7332
lfoot -8.80063 5.58432
ltoes -13.2262
1443
root -2.25948 18.0693 -0.0785264 -1.93388 -69.8966 -0.438673
lowerback 10.2357 2.00948 -0.295013
upperback 3.29231 2.51366 -1.17296
thorax -2.26873 1.21759 -1.34687
lowerneck -11.5978 1.77864 -4.04053
upperneck 3.84401 2.94429 0.0886213
head 3.23564 1.3866 0.930368
rclavicle 4.52235e-014 -2.38542e-015
rhumerus -20.177 44.7391 -94.7379
rradius 36.181
rwrist 19.0193
rhand 14.2868 5.84282
rfingers 7.12502
rthumb 39.1799 -19.6254
lclavicle 4.52235e-014 -2.38542e-015
lhumerus -24.9692 -51.4361 100.916
lradius 35.2775
lwrist -1.17643
lhand 15.111 30.4886
lfingers 7.12502
lthumb 39.9561 55.7279
rfemur -14.6261 32.1138 6.27005
rtibia 33.1727
rfoot -18.9284 3.68963
rtoes -18.2789
lfemur -20.0921 -9.55743 -8.73493
ltibia 33.517
lfoot -8.56906 5.20026
ltoes -13.4541
1444
root -2.30388 18.0578 -0.178143 -1.6692 -69.1169 -0.935975
lowerback 10.2202 1.98761 -0.0409673
upperback 3.28669 2.51309 -1.14173
thorax -2.2564 1.21847 -1.45647
lowerneck -11.4624 1.67144 -4.02883
upperneck 4.05435 2.81775 -0.20031
head 3.28965 1.30804 0.825589
rclavicle -6.15736e-014 7.55382e-015
rhumerus -18.6225 44.4117 -93.1764
rradius 35.5161
rwrist 20.0511
rhand 11.8764 8.3404
rfingers 7.12502
rthumb 36.9038 -17.7489
lclavicle -6.15736e-014 7.55382e-015
lhumerus -23.7228 -51.482 99.3841
lradius 35.7011
lwrist -0.75772
lhand 18.2983 29.9771
lfingers 7.12502
lthumb 42.9467 54.2419
rfemur -13.9282 31.4374 7.13368
rtibia 32.9709
rfoot -19.5157 3.60093
rtoes -17.0498
lfemur -19.9601 -10.1586 -8.17831
ltibia 33.2168
lfoot -8.33599 4.92842
ltoes -12.8857
1445
root -2.34533 18.0449 -0.281929 -1.21099 -68.304 -1.61371
lowerback 10.1557 1.9185 0.238271
upperback 3.25667 2.4558 -1.04353
thorax -2.24598 1.19144 -1.50301
lowerneck -11.466 1.61121 -4.25146
upperneck 4.50473 2.78737 -0.301759
head 3.44758 1.2761 0.835448
rclavicle -6.48535e-014 3.97569e-015
rhumerus -17.1114 44.387 -91.6873
rradius 35.1696
rwrist 20.1056
rhand 12.0376 7.11518
rfingers 7.12502
rthumb 37.0563 -18.9347
lclavicle -6.48535e-014 3.97569e-015
lhumerus -22.1043 -50.7874 97.6082
lradius 36.1697
lwrist 0.464954
lhand 18.5949 31.3351
lfingers 7.12502
lthumb 43.224 55.5014
rfemur -13.26 30.1139 8.16186
rtibia 32.8358
rfoot -20.0726 3.87471
rtoes -15.548
lfemur -19.8391 -10.5763 -7.53322
ltibia 32.7889
lfoot -7.96101 4.54924
ltoes -12.6508
1446
root -2.38998 18.0467 -0.384152 -1.00098 -67.6334 -1.92859
lowerback 9.92331 1.91894 0.374648
upperback 3.18841 2.47607 -1.00716
thorax -2.18434 1.20382 -1.53696
lowerneck -11.8289 1.55061 -4.41921
upperneck 5.40836 2.77297 -0.325117
head 3.83774 1.24557 0.874369
rclavicle 4.31363e-014 -1.19271e-014
rhumerus -15.6435 44.2455 -90.1766
rradius 34.9496
rwrist 20.3055
rhand 10.4413 7.5597
rfingers 7.12502
rthumb 35.5448 -18.8674
lclavicle 4.31363e-014 -1.19271e-014
lhumerus -20.7643 -50.9443 96.0406
lradius 36.6521
lwrist 2.09538
lhand 12.8869 34.3704
lfingers 7.12502
lthumb 37.859 60.2079
rfemur -12.7886 28.7421 9.0076
rtibia 32.8326
rfoot -20.513 3.56952
rtoes -14.386
lfemur -19.6461 -10.9398 -7.03368
ltibia 32.1983
lfoot -7.57598 4.27138
ltoes -12.8477
1447
root -2.43233 18.0579 -0.486678 -1.035 -66.9286 -1.86506
lowerback 9.60349 1.9297 0.441586
upperback 3.08329 2.50065 -1.0749
thorax -2.11072 1.21888 -1.63741
lowerneck -12.0341 1.46239 -4.66608
upperneck 6.17563 2.71313 -0.21447
head 4.15185 1.19931 0.965237
rclavicle 3.74212e-014 -3.18055e-015
rhumerus -14.159 43.9363 -88.6287
rradius 34.909
rwrist 20.3948
rhand 9.84569 7.17269
rfingers 7.12502
rthumb 34.98 -19.388
lclavicle 3.74212e-014 -3.18055e-015
lhumerus -19.3099 -51.2281 94.1975
lradius 37.2753
lwrist 3.32271
lhand 9.54452 35.3823
lfingers 7.12502
lthumb 34.6942 62.0092
rfemur -12.5821 27.4272 9.63361
rtibia 32.978
rfoot -20.7076 2.60489
rtoes -13.6526
lfemur -19.471 -11.3418 -6.67496
ltibia 31.3623
lfoot -7.0872 4.07752
ltoes -13.186
1448
root -2.47438 18.0732 -0.587916 -1.30188 -66.094 -1.70348
lowerback 9.37958 1.91626 0.567633
upperback 3.0279 2.49518 -1.18224
thorax -2.03461 1.21855 -1.811
lowerneck -11.8568 1.33089 -4.94885
upperneck 6.55963 2.57205 -0.11885
head 4.25527 1.11967 1.04053
rclavicle 1.49089e-015 2.78299e-015
rhumerus -12.6725 43.4254 -87.0366
rradius 34.9632
rwrist 20.4386
rhand 9.14901 5.84093
rfingers 7.12502
rthumb 34.3188 -20.8715
lclavicle 1.49089e-015 2.78299e-015
lhumerus -17.6972 -51.2572 92.1976
lradius 37.8936
lwrist 3.56916
lhand 9.65048 34.8452
lfingers 7.12502
lthumb 34.7948 61.449
rfemur -12.2344 26.4762 10.2851
rtibia 33.1871
rfoot -20.8618 1.63575
rtoes -13.4668
lfemur -19.0701 -11.9022 -6.39627
ltibia 30.2947
lfoot -6.51102 3.91545
ltoes -13.6565
1449
root -2.52418 18.0947 -0.69724 -1.84547 -65.4702 -1.43763
lowerback 9.2618 2.01998 0.430208
upperback 3.0238 2.6202 -1.2398
thorax -1.97323 1.28178 -1.80205
lowerneck -11.6528 1.17308 -5.19974
upperneck 7.31394 2.38921 -0.0327339
head 4.02345 1.02074 0.986819
rclavicle -1.73937e-015 -1.59028e-015
rhumerus -11.3064 42.8182 -85.3685
rradius 35.0604
rwrist 20.9374
rhand 7.39476 5.44698
rfingers 7.12502
rthumb 32.6514 -21.6261
lclavicle -1.73937e-015 -1.59028e-015
lhumerus -16.0154 -51.482 90.1795
lradius 38.5862
lwrist 4.08001
lhand 9.59928 34.3288
lfingers 7.12502
lthumb 34.7462 60.9437
rfemur -11.715 26.3388 10.9701
rtibia 33.3802
rfoot -20.9906 0.93439
rtoes -13.4342
lfemur -18.2925 -12.3099 -6.17883
ltibia 29.0939
lfoot -5.92565 3.70809
ltoes -13.6593
1450
root -2.57048 18.1208 -0.808178 -2.09749 -64.6984 -1.2811
lowerback 8.98466 2.07669 0.238096
upperback 2.92973 2.68381 -1.23221
thorax -1.92518 1.31505 -1.68413
lowerneck -11.3672 1.01483 -5.39247
upperneck 7.79843 2.21068 -0.155241
head 4.13078 0.909405 0.969408
rclavicle -3.0265e-014 2.38542e-015
rhumerus -10.0503 42.2874 -83.6006
rradius 35.1013
rwrist 21.5474
rhand 4.62067 5.86456
rfingers 7.12502
rthumb 30.0081 -21.7212
lclavicle -3.0265e-014 2.38542e-015
lhumerus -14.1313 -51.7005 87.9807
lradius 39.3686
lwrist 5.2974
lhand 10.8047 33.3847
lfingers 7.12502
lthumb 35.8892 59.7283
rfemur -11.4104 26.2503 11.5633
rtibia 33.5344
rfoot -20.9537 0.148258
rtoes -13.6983
lfemur -17.7619 -12.5822 -5.87633
ltibia 27.8037
lfoot -5.15922 3.35467
ltoes -12.8128
